<?xml version="1.0"?>
<!DOCTYPE svg PUBLIC "-//W3C//DTD SVG 1.1//EN" "http://www.w3.org/Graphics/SVG/1.1/DTD/svg11.dtd">
<svg width="96.9mm" height="76.9mm" viewBox="0 0 96.9 76.9" xmlns="http://www.w3.org/2000/svg" version="1.1">
<g id="Rectangle001" transform="translate(5.950000,70.950000) scale(1,-1)">
<path id="Rectangle001_f0000"  d="M -5.0 -5.0 L 90.0 -5.0 L 90.0 70.0 L -5.0 70.0 L -5.0 -5.0 Z " stroke="#000000" stroke-width="0.35 px" style="stroke-width:0.35;stroke-miterlimit:4;stroke-dasharray:none;fill:#cccccc;fill-rule: evenodd "/>
<title>ForcedView</title>
</g>
<g id="Rectangle" transform="translate(5.950000,70.950000) scale(1,-1)">
<path id="Rectangle_f0000"  d="M 0.0 0.0 L 75.0 2.29621274839e-15 L 75.0 50.0 L -1.53080849893e-15 50.0 L 0.0 0.0 Z " stroke="#000000" stroke-width="0.35 px" style="stroke-width:0.35;stroke-miterlimit:4;stroke-dasharray:none;fill:#00aa00;fill-rule: evenodd "/>
<title>Board</title>
</g>
<g id="Dimension002" transform="translate(5.950000,70.950000) scale(1,-1)">
<path d="M 75.0 0.0 L 85.0 0.0 L 85.0 50.0 L 75.0 50.0" fill="none" stroke="#000000" stroke-width="0.35 px" style="stroke-width:0.35;stroke-miterlimit:4;stroke-dasharray:none" freecad:basepoint1="75.0 0.0" freecad:basepoint2="75.0 50.0" freecad:dimpoint="85.0 0.0"/>
<path transform="rotate(90.0,85.0,0.0) translate(85.0,0.0) scale(1.33333333333,1.33333333333)" freecad:skip="1" fill="#000000" stroke="none" style="stroke-miterlimit:4;stroke-dasharray:none" d="M 0 0 L 4 1 L 4 -1 Z"/>
<path transform="rotate(270.0,85.0,50.0) translate(85.0,50.0) scale(1.33333333333,1.33333333333)" freecad:skip="1" fill="#000000" stroke="none" style="stroke-miterlimit:4;stroke-dasharray:none" d="M 0 0 L 4 1 L 4 -1 Z"/>
<text fill="#000000" font-size="6.0" style="text-anchor:middle;text-align:center;font-family:" transform="rotate(90.0,83.0,25.0) translate(83.0,25.0) scale(1,-1) " freecad:skip="1">
X = m * 2.5 mm</text>
<title>Dim Board X</title>
</g>
<g id="Dimension003" transform="translate(5.950000,70.950000) scale(1,-1)">
<path d="M 0.0 50.0 L 0.0 60.0 L 75.0 60.0 L 75.0 50.0" fill="none" stroke="#000000" stroke-width="0.35 px" style="stroke-width:0.35;stroke-miterlimit:4;stroke-dasharray:none" freecad:basepoint1="0.0 50.0" freecad:basepoint2="75.0 50.0" freecad:dimpoint="0.0 60.0"/>
<path transform="rotate(-0.0,0.0,60.0) translate(0.0,60.0) scale(1.33333333333,1.33333333333)" freecad:skip="1" fill="#000000" stroke="none" style="stroke-miterlimit:4;stroke-dasharray:none" d="M 0 0 L 4 1 L 4 -1 Z"/>
<path transform="rotate(180.0,75.0,60.0) translate(75.0,60.0) scale(1.33333333333,1.33333333333)" freecad:skip="1" fill="#000000" stroke="none" style="stroke-miterlimit:4;stroke-dasharray:none" d="M 0 0 L 4 1 L 4 -1 Z"/>
<text fill="#000000" font-size="6.0" style="text-anchor:middle;text-align:center;font-family:" transform="rotate(-0.0,37.5,62.0) translate(37.5,62.0) scale(1,-1) " freecad:skip="1">
Y = n * 2.5 mm</text>
<title>Dim Board Y</title>
</g>
</svg>